{
  "accessors": [
    {
      "bufferView": 2,
      "componentType": 5126,
      "count": 162,
      "max": [
        78.51070404052734,
        46.000003814697266,
        78.51070404052734
      ],
      "min": [
        -78.51070404052734,
        -46.000003814697266,
        -78.51069641113281
      ],
      "type": "VEC3"
    },
    {
      "bufferView": 2,
      "byteOffset": 1944,
      "componentType": 5126,
      "count": 162,
      "max": [
        0.992263674736023,
        1.0,
        0.992263674736023
      ],
      "min": [
        -0.992263674736023,
        -1.0,
        -0.9922637343406677
      ],
      "type": "VEC3"
    },
    {
      "bufferView": 1,
      "componentType": 5126,
      "count": 162,
      "max": [
        1.0,
        1.0
      ],
      "min": [
        -1.564621925354004e-07,
        0.010000020265579224
      ],
      "type": "VEC2"
    },
    {
      "bufferView": 0,
      "componentType": 5125,
      "count": 468,
      "type": "SCALAR"
    },
    {
      "bufferView": 2,
      "byteOffset": 3888,
      "componentType": 5126,
      "count": 187,
      "max": [
        63.261051177978516,
        43.12040710449219,
        63.261051177978516
      ],
      "min": [
        -63.261051177978516,
        -5.705695629119873,
        -63.261051177978516
      ],
      "type": "VEC3"
    },
    {
      "bufferView": 2,
      "byteOffset": 6132,
      "componentType": 5126,
      "count": 187,
      "max": [
        1.0,
        1.0,
        1.0
      ],
      "min": [
        -1.0,
        -1.0,
        -1.0
      ],
      "type": "VEC3"
    },
    {
      "bufferView": 1,
      "byteOffset": 1296,
      "componentType": 5126,
      "count": 187,
      "max": [
        1.0,
        1.0
      ],
      "min": [
        -1.564621925354004e-07,
        0.010000020265579224
      ],
      "type": "VEC2"
    },
    {
      "bufferView": 0,
      "byteOffset": 1872,
      "componentType": 5125,
      "count": 708,
      "type": "SCALAR"
    },
    {
      "bufferView": 2,
      "byteOffset": 8376,
      "componentType": 5126,
      "count": 162,
      "max": [
        78.51070404052734,
        46.000003814697266,
        78.51070404052734
      ],
      "min": [
        -78.51070404052734,
        -46.000003814697266,
        -78.51069641113281
      ],
      "type": "VEC3"
    },
    {
      "bufferView": 2,
      "byteOffset": 10320,
      "componentType": 5126,
      "count": 162,
      "max": [
        0.992263674736023,
        1.0,
        0.992263674736023
      ],
      "min": [
        -0.992263674736023,
        -1.0,
        -0.9922637343406677
      ],
      "type": "VEC3"
    },
    {
      "bufferView": 1,
      "byteOffset": 2792,
      "componentType": 5126,
      "count": 162,
      "max": [
        1.0,
        1.0
      ],
      "min": [
        -1.564621925354004e-07,
        0.010000020265579224
      ],
      "type": "VEC2"
    },
    {
      "bufferView": 0,
      "byteOffset": 4704,
      "componentType": 5125,
      "count": 468,
      "type": "SCALAR"
    },
    {
      "bufferView": 2,
      "byteOffset": 12264,
      "componentType": 5126,
      "count": 187,
      "max": [
        63.261051177978516,
        43.12040710449219,
        63.261051177978516
      ],
      "min": [
        -63.261051177978516,
        -5.705695629119873,
        -63.261051177978516
      ],
      "type": "VEC3"
    },
    {
      "bufferView": 2,
      "byteOffset": 14508,
      "componentType": 5126,
      "count": 187,
      "max": [
        1.0,
        1.0,
        1.0
      ],
      "min": [
        -1.0,
        -1.0,
        -1.0
      ],
      "type": "VEC3"
    },
    {
      "bufferView": 1,
      "byteOffset": 4088,
      "componentType": 5126,
      "count": 187,
      "max": [
        1.0,
        1.0
      ],
      "min": [
        -1.564621925354004e-07,
        0.010000020265579224
      ],
      "type": "VEC2"
    },
    {
      "bufferView": 0,
      "byteOffset": 6576,
      "componentType": 5125,
      "count": 708,
      "type": "SCALAR"
    }
  ],
  "asset": {
    "extras": {
      "author": "aysenaz (https://sketchfab.com/Aysenazkara)",
      "license": "CC-BY-4.0 (http://creativecommons.org/licenses/by/4.0/)",
      "source": "https://sketchfab.com/3d-models/sauces-3c532ef62ad9420ba9626013bea2c932",
      "title": "Sauces"
    },
    "generator": "Sketchfab-12.63.0",
    "version": "2.0"
  },
  "bufferViews": [
    {
      "buffer": 0,
      "byteLength": 9408,
      "name": "floatBufferViews",
      "target": 34963
    },
    {
      "buffer": 0,
      "byteLength": 5584,
      "byteOffset": 9408,
      "byteStride": 8,
      "name": "floatBufferViews",
      "target": 34962
    },
    {
      "buffer": 0,
      "byteLength": 16752,
      "byteOffset": 14992,
      "byteStride": 12,
      "name": "floatBufferViews",
      "target": 34962
    }
  ],
  "buffers": [
    {
      "byteLength": 31744,
      "uri": "scene.bin"
    }
  ],
  "materials": [
    {
      "doubleSided": true,
      "name": "Sauce_box",
      "pbrMetallicRoughness": {
        "baseColorFactor": [
          0.448743,
          0.448743,
          0.448743,
          1.0
        ],
        "metallicFactor": 0.0,
        "roughnessFactor": 0.8996580147572811
      }
    },
    {
      "doubleSided": true,
      "name": "Ketchup",
      "pbrMetallicRoughness": {
        "baseColorFactor": [
          0.8,
          0.0352999,
          0.0282707,
          1.0
        ],
        "metallicFactor": 0.0,
        "roughnessFactor": 0.9558672556009048
      }
    },
    {
      "doubleSided": true,
      "name": "Mayonnaise",
      "pbrMetallicRoughness": {
        "baseColorFactor": [
          0.79483,
          0.206361,
          0.098562,
          1.0
        ],
        "metallicFactor": 0.0,
        "roughnessFactor": 0.9276215157908744
      }
    }
  ],
  "meshes": [
    {
      "name": "Sauce_box_Sauce_box_0",
      "primitives": [
        {
          "attributes": {
            "NORMAL": 1,
            "POSITION": 0,
            "TEXCOORD_0": 2
          },
          "indices": 3,
          "material": 0,
          "mode": 4
        }
      ]
    },
    {
      "name": "Sauce_Ketchup_0",
      "primitives": [
        {
          "attributes": {
            "NORMAL": 5,
            "POSITION": 4,
            "TEXCOORD_0": 6
          },
          "indices": 7,
          "material": 1,
          "mode": 4
        }
      ]
    },
    {
      "name": "Sauce_box.001_Sauce_box_0",
      "primitives": [
        {
          "attributes": {
            "NORMAL": 9,
            "POSITION": 8,
            "TEXCOORD_0": 10
          },
          "indices": 11,
          "material": 0,
          "mode": 4
        }
      ]
    },
    {
      "name": "Sauce.001_Mayonnaise_0",
      "primitives": [
        {
          "attributes": {
            "NORMAL": 13,
            "POSITION": 12,
            "TEXCOORD_0": 14
          },
          "indices": 15,
          "material": 2,
          "mode": 4
        }
      ]
    }
  ],
  "nodes": [
    {
      "children": [
        1
      ],
      "matrix": [
        1.0,
        0.0,
        0.0,
        0.0,
        0.0,
        2.220446049250313e-16,
        -1.0,
        0.0,
        0.0,
        1.0,
        2.220446049250313e-16,
        0.0,
        0.0,
        0.0,
        0.0,
        1.0
      ],
      "name": "Sketchfab_model"
    },
    {
      "children": [
        2
      ],
      "matrix": [
        1.0,
        0.0,
        0.0,
        0.0,
        0.0,
        0.0,
        1.0,
        0.0,
        0.0,
        -1.0,
        0.0,
        0.0,
        0.0,
        0.0,
        0.0,
        1.0
      ],
      "name": "9e5ac7fe892a44138b9d4513f8968205.fbx"
    },
    {
      "children": [
        3,
        7
      ],
      "name": "RootNode"
    },
    {
      "children": [
        4,
        5
      ],
      "name": "Sauce_box"
    },
    {
      "mesh": 0,
      "name": "Sauce_box_Sauce_box_0"
    },
    {
      "children": [
        6
      ],
      "matrix": [
        1.0,
        0.0,
        0.0,
        0.0,
        0.0,
        1.0,
        0.0,
        0.0,
        0.0,
        0.0,
        1.0,
        0.0,
        0.0,
        19.128557205200195,
        0.0,
        1.0
      ],
      "name": "Sauce"
    },
    {
      "mesh": 1,
      "name": "Sauce_Ketchup_0"
    },
    {
      "children": [
        8,
        9
      ],
      "matrix": [
        1.0,
        0.0,
        0.0,
        0.0,
        0.0,
        1.0,
        0.0,
        0.0,
        0.0,
        0.0,
        1.0,
        0.0,
        0.0,
        0.0,
        -267.83355712890625,
        1.0
      ],
      "name": "Sauce_box.001"
    },
    {
      "mesh": 2,
      "name": "Sauce_box.001_Sauce_box_0"
    },
    {
      "children": [
        10
      ],
      "matrix": [
        1.0,
        0.0,
        0.0,
        0.0,
        0.0,
        1.0,
        0.0,
        0.0,
        0.0,
        0.0,
        1.0,
        0.0,
        0.0,
        19.128557205200195,
        0.0,
        1.0
      ],
      "name": "Sauce.001"
    },
    {
      "mesh": 3,
      "name": "Sauce.001_Mayonnaise_0"
    }
  ],
  "scene": 0,
  "scenes": [
    {
      "name": "Sketchfab_Scene",
      "nodes": [
        0
      ]
    }
  ]
}
