{
  "accessors": [
    {
      "bufferView": 2,
      "componentType": 5126,
      "count": 2846,
      "max": [
        0.2563900053501129,
        0.7511399984359741,
        0.2563900053501129
      ],
      "min": [
        -0.2563900053501129,
        -1.0,
        -0.2563900053501129
      ],
      "type": "VEC3"
    },
    {
      "bufferView": 2,
      "byteOffset": 34152,
      "componentType": 5126,
      "count": 2846,
      "max": [
        1.0,
        1.0,
        1.0
      ],
      "min": [
        -1.0,
        -1.0,
        -1.0
      ],
      "type": "VEC3"
    },
    {
      "bufferView": 3,
      "componentType": 5126,
      "count": 2846,
      "max": [
        0.9949913620948792,
        1.0,
        0.999366044998169,
        1.0
      ],
      "min": [
        -0.9988815188407898,
        -0.9997700452804565,
        -0.9997005462646484,
        1.0
      ],
      "type": "VEC4"
    },
    {
      "bufferView": 1,
      "componentType": 5126,
      "count": 2846,
      "max": [
        0.9995480179786682,
        0.8935160040855408
      ],
      "min": [
        0.0004521819937508553,
        0.0004521819937508553
      ],
      "type": "VEC2"
    },
    {
      "bufferView": 0,
      "componentType": 5125,
      "count": 11952,
      "type": "SCALAR"
    },
    {
      "bufferView": 2,
      "byteOffset": 68304,
      "componentType": 5126,
      "count": 695,
      "max": [
        0.10934700071811676,
        1.0,
        0.10934700071811676
      ],
      "min": [
        -0.10934700071811676,
        0.8584280014038086,
        -0.10934700071811676
      ],
      "type": "VEC3"
    },
    {
      "bufferView": 2,
      "byteOffset": 76644,
      "componentType": 5126,
      "count": 695,
      "max": [
        1.0,
        1.0,
        1.0
      ],
      "min": [
        -1.0,
        -0.992464005947113,
        -1.0
      ],
      "type": "VEC3"
    },
    {
      "bufferView": 3,
      "byteOffset": 45536,
      "componentType": 5126,
      "count": 695,
      "max": [
        0.9904752373695374,
        1.0,
        1.0,
        1.0
      ],
      "min": [
        -1.0,
        -0.6702775955200195,
        -0.9904236793518066,
        1.0
      ],
      "type": "VEC4"
    },
    {
      "bufferView": 1,
      "byteOffset": 22768,
      "componentType": 5126,
      "count": 695,
      "max": [
        0.6748960018157959,
        0.8700069785118103
      ],
      "min": [
        0.0004521819937508553,
        0.37515899538993835
      ],
      "type": "VEC2"
    },
    {
      "bufferView": 0,
      "byteOffset": 47808,
      "componentType": 5125,
      "count": 2784,
      "type": "SCALAR"
    }
  ],
  "asset": {
    "extras": {
      "author": "denzmoon (https://sketchfab.com/denzmoon)",
      "license": "CC-BY-4.0 (http://creativecommons.org/licenses/by/4.0/)",
      "source": "https://sketchfab.com/3d-models/mineral-water-drink-plastic-bottle-578577e4e6584b58b1072ab9aa40314d",
      "title": "Mineral Water Drink Plastic Bottle"
    },
    "generator": "Sketchfab-12.65.0",
    "version": "2.0"
  },
  "bufferViews": [
    {
      "buffer": 0,
      "byteLength": 58944,
      "name": "floatBufferViews",
      "target": 34963
    },
    {
      "buffer": 0,
      "byteLength": 28328,
      "byteOffset": 58944,
      "byteStride": 8,
      "name": "floatBufferViews",
      "target": 34962
    },
    {
      "buffer": 0,
      "byteLength": 84984,
      "byteOffset": 87272,
      "byteStride": 12,
      "name": "floatBufferViews",
      "target": 34962
    },
    {
      "buffer": 0,
      "byteLength": 56656,
      "byteOffset": 172256,
      "byteStride": 16,
      "name": "floatBufferViews",
      "target": 34962
    }
  ],
  "buffers": [
    {
      "byteLength": 228912,
      "uri": "scene.bin"
    }
  ],
  "images": [
    {
      "uri": "textures/bottle_cap_baseColor.png"
    },
    {
      "uri": "textures/bottle_cap_metallicRoughness.png"
    },
    {
      "uri": "textures/bottle_cap_normal.png"
    },
    {
      "uri": "textures/body_bottle_baseColor.png"
    },
    {
      "uri": "textures/body_bottle_metallicRoughness.png"
    },
    {
      "uri": "textures/body_bottle_normal.png"
    }
  ],
  "materials": [
    {
      "alphaMode": "BLEND",
      "doubleSided": true,
      "name": "bottle_cap",
      "normalTexture": {
        "index": 2
      },
      "occlusionTexture": {
        "index": 1
      },
      "pbrMetallicRoughness": {
        "baseColorTexture": {
          "index": 0
        },
        "metallicRoughnessTexture": {
          "index": 1
        }
      }
    },
    {
      "alphaMode": "BLEND",
      "doubleSided": true,
      "name": "body_bottle",
      "normalTexture": {
        "index": 5
      },
      "occlusionTexture": {
        "index": 4
      },
      "pbrMetallicRoughness": {
        "baseColorTexture": {
          "index": 3
        },
        "metallicRoughnessTexture": {
          "index": 4
        }
      }
    }
  ],
  "meshes": [
    {
      "name": "defaultMaterial",
      "primitives": [
        {
          "attributes": {
            "NORMAL": 1,
            "POSITION": 0,
            "TANGENT": 2,
            "TEXCOORD_0": 3
          },
          "indices": 4,
          "material": 1,
          "mode": 4
        }
      ]
    },
    {
      "name": "defaultMaterial",
      "primitives": [
        {
          "attributes": {
            "NORMAL": 6,
            "POSITION": 5,
            "TANGENT": 7,
            "TEXCOORD_0": 8
          },
          "indices": 9,
          "material": 0,
          "mode": 4
        }
      ]
    }
  ],
  "nodes": [
    {
      "children": [
        1
      ],
      "matrix": [
        1.0,
        0.0,
        0.0,
        0.0,
        0.0,
        2.220446049250313e-16,
        -1.0,
        0.0,
        0.0,
        1.0,
        2.220446049250313e-16,
        0.0,
        0.0,
        0.0,
        0.0,
        1.0
      ],
      "name": "Sketchfab_model"
    },
    {
      "children": [
        2,
        4
      ],
      "matrix": [
        1.0,
        0.0,
        0.0,
        0.0,
        0.0,
        -4.371139006309477e-08,
        0.999999999999999,
        0.0,
        0.0,
        -0.999999999999999,
        -4.371139006309477e-08,
        0.0,
        0.0,
        0.0,
        0.0,
        1.0
      ],
      "name": "Collada visual scene group"
    },
    {
      "children": [
        3
      ],
      "name": "Cylinder.000"
    },
    {
      "mesh": 0,
      "name": "defaultMaterial"
    },
    {
      "children": [
        5
      ],
      "name": "Cylinder.000"
    },
    {
      "mesh": 1,
      "name": "defaultMaterial"
    }
  ],
  "samplers": [
    {
      "magFilter": 9729,
      "minFilter": 9987,
      "wrapS": 10497,
      "wrapT": 10497
    }
  ],
  "scene": 0,
  "scenes": [
    {
      "name": "Sketchfab_Scene",
      "nodes": [
        0
      ]
    }
  ],
  "textures": [
    {
      "sampler": 0,
      "source": 0
    },
    {
      "sampler": 0,
      "source": 1
    },
    {
      "sampler": 0,
      "source": 2
    },
    {
      "sampler": 0,
      "source": 3
    },
    {
      "sampler": 0,
      "source": 4
    },
    {
      "sampler": 0,
      "source": 5
    }
  ]
}
